<svg id="Layer_1" data-name="Layer 1" xmlns="http://www.w3.org/2000/svg" viewBox="0 0 440 440"><defs><style>.cls-1{fill:#00193c;}</style></defs><path class="cls-1" d="M131.83,249.66a55.4,55.4,0,0,0,34-11.63l-78-78a55.64,55.64,0,0,0,44,89.67Z"/><path class="cls-1" d="M363.82,194a55.39,55.39,0,0,0-11.62-34l-78.05,78a55.63,55.63,0,0,0,89.67-44Z"/><path class="cls-1" d="M403.05,109.13l-34.52,34.52A78.6,78.6,0,0,1,257.82,254.37L220,292.18l-37.82-37.81A78.6,78.6,0,0,1,71.47,143.65L53.73,125.91,37,109.13A213,213,0,0,0,6,220c0,118.19,95.81,214,214,214s214-95.81,214-214A213,213,0,0,0,403.05,109.13Z"/><path class="cls-1" d="M374.83,72.31a213.91,213.91,0,0,0-309.66,0,216.09,216.09,0,0,0-15,17.51L220,259.66,389.84,89.82A216.09,216.09,0,0,0,374.83,72.31ZM220,34c50.05,0,96.58,19.31,131.57,54.49L220,220.06,88.43,88.49C123.42,53.31,170,34,220,34Z"/></svg>